<?xml version="1.0" encoding="UTF-8"?>
<svg id="Layer_2" data-name="Layer 2" xmlns="http://www.w3.org/2000/svg" viewBox="0 0 249.38 249.38">
  <defs>
    <style>
      .cls-1 {
        fill: #194742;
      }
    </style>
  </defs>
  <g id="Layer_1-2" data-name="Layer 1">
    <g id="Artwork_1" data-name="Artwork 1">
      <g>
        <path class="cls-1" d="M99.54,140.24h10.68v30.06h-10.68v-30.06ZM147.21,128.07l17.9,42.22h-11.96l-16.81-39.47h-48.74l-3.43-9.44h15.36v-42.26h35.93c9.74,0,16.96,2.65,21.66,7.98,4.7,5.32,7.04,11.14,7.04,17.45,0,4.87-1.31,9.53-3.95,13.97-2.6,4.45-6.96,7.64-13.01,9.55M148.12,116.56c3.09-3.33,4.64-7.37,4.64-12.18s-1.63-8.57-4.9-11.24c-3.27-2.66-7.43-4-12.39-4h-25.26v32.4h23.84c6.29,0,10.98-1.67,14.07-4.98"/>
        <path class="cls-1" d="M124.69,249.38C55.94,249.38,0,193.45,0,124.7S55.94,0,124.69,0s124.69,55.94,124.69,124.7-55.94,124.69-124.69,124.69M124.69,9.98C61.44,9.98,9.98,61.44,9.98,124.7s51.46,114.71,114.72,114.71,114.72-51.46,114.72-114.71S187.95,9.98,124.69,9.98"/>
      </g>
    </g>
  </g>
</svg>